<?xml version="1.0" standalone="no"?><!DOCTYPE svg PUBLIC "-//W3C//DTD SVG 1.1//EN" "http://www.w3.org/Graphics/SVG/1.1/DTD/svg11.dtd"><svg t="1734514627252" class="icon" viewBox="0 0 1024 1024" version="1.1" xmlns="http://www.w3.org/2000/svg" p-id="11749" xmlns:xlink="http://www.w3.org/1999/xlink" width="16" height="16"><path d="M735.6 435.984v91.856H416a16 16 0 0 0-16 16v141.104a16 16 0 0 0 16 16h319.664v91.808a8 8 0 0 0 13.264 6.032l204.176-178.4a8 8 0 0 0 0-12.048l-204.24-178.384a8 8 0 0 0-13.264 6.032zM288.336 303.84v-91.872a8 8 0 0 0-13.264-6.032L70.896 384.352a8 8 0 0 0 0 12.048l204.24 178.384a8 8 0 0 0 13.248-6.032V476.96H608a16 16 0 0 0 16-16V319.84a16 16 0 0 0-16-16H288.336z" p-id="11750" fill="#8e9aa5"></path></svg>